<svg width="187" height="40" viewBox="0 0 187 40" fill="none" xmlns="http://www.w3.org/2000/svg">
<path d="M34.6739 17.8608C34.1229 14.0149 32.1097 10.5341 29.0582 8.15138C26.0067 5.76865 22.1551 4.6699 18.3142 5.08651C14.4734 5.50312 10.9431 7.40257 8.46684 10.3849C5.99055 13.3672 4.76147 17.1997 5.03839 21.0753C5.31531 24.9509 7.07665 28.5672 9.95148 31.1627C12.8263 33.7582 16.5903 35.1303 20.4509 34.9902C24.3115 34.8501 27.9674 33.2087 30.6488 30.4115C33.3302 27.6144 34.8278 23.8798 34.8263 19.9942C34.8262 19.2803 34.7753 18.5673 34.6739 17.8608ZM28.8854 22.3774C28.3102 24.5326 26.9757 26.4041 25.1305 27.6432C23.2853 28.8823 21.0553 29.4046 18.8557 29.1128C16.6562 28.821 14.637 27.735 13.1743 26.057C11.7117 24.3791 10.9053 22.2236 10.9053 19.992C10.9053 17.7605 11.7117 15.605 13.1743 13.9271C14.637 12.2491 16.6562 11.1631 18.8557 10.8713C21.0553 10.5795 23.2853 11.1018 25.1305 12.3409C26.9757 13.58 28.3102 15.4514 28.8854 17.6067C28.9116 17.7031 28.9368 17.7815 28.9595 17.8958C29.1359 18.7828 28.5806 20.036 28.4107 20.1455L28.3236 20.2156L28.219 20.2857C27.918 20.4791 27.5736 18.5936 27.2173 18.6187H26.9211C26.5709 18.5935 26.232 18.4835 25.9332 18.2982C25.6344 18.1128 25.3846 17.8575 25.2051 17.5541C25.1615 17.4621 25.1179 17.3701 25.07 17.2825C24.617 16.4271 23.9544 15.7021 23.145 15.1762C22.3355 14.6503 21.4061 14.3409 20.4445 14.2772C20.3154 14.2706 20.186 14.2706 20.0569 14.2772C19.8609 14.2772 19.6693 14.2772 19.4776 14.3079C18.0458 14.4059 16.7044 15.0471 15.7247 16.1019C14.7449 17.1567 14.2 18.5464 14.2 19.9899C14.2 21.4333 14.7449 22.823 15.7247 23.8778C16.7044 24.9326 18.0458 25.5738 19.4776 25.6718C19.6693 25.6718 19.8609 25.6981 20.0569 25.6981C20.2529 25.6981 20.3269 25.6981 20.4576 25.6981C21.4145 25.6317 22.3389 25.3219 23.1442 24.7978C23.9494 24.2737 24.6091 23.5524 25.0613 22.7016L25.1397 22.5526L25.192 22.4387C25.374 22.1318 25.6279 21.8743 25.9316 21.6888C26.2353 21.5032 26.5795 21.3952 26.9342 21.3742H27.226C27.5892 21.402 27.9396 19.521 28.2452 19.7203C28.306 19.7587 28.3642 19.8011 28.4194 19.8473C28.5928 19.9613 28.7821 20.0485 28.9812 20.1058C28.942 20.1847 29 22 28.8854 22.3774Z" fill="white"/>
<path d="M32.4576 20.0187C32.4576 20.6289 32.2163 21.214 31.7868 21.6454C31.3573 22.0768 30.7748 22.3192 30.1674 22.3192C29.9519 22.3193 29.7375 22.2883 29.5308 22.2272C29.3214 22.167 29.1222 22.0755 28.9399 21.9557C28.8818 21.9072 28.8206 21.8626 28.7566 21.8223C28.4353 21.613 28.0668 21.4881 27.6849 21.4588H27.378C27.005 21.4809 26.643 21.5943 26.3237 21.7892C26.0043 21.9841 25.7373 22.2545 25.5459 22.5769C25.497 22.6689 25.4512 22.7609 25.4084 22.8529C24.9341 23.7446 24.2425 24.5009 23.3982 25.0513C22.554 25.6016 21.5846 25.928 20.5807 26C20.4433 26 20.3014 26 20.1594 26C20.0174 26 19.7517 26 19.5502 25.9724C18.0444 25.8695 16.6338 25.196 15.6035 24.0882C14.5731 22.9804 14 21.521 14 20.0049C14 18.4889 14.5731 17.0294 15.6035 15.9216C16.6338 14.8138 18.0444 14.1404 19.5502 14.0374C19.7517 14.0374 19.9533 14.0052 20.1594 14.0052C20.2952 13.9983 20.4312 13.9983 20.567 14.0052C21.5752 14.0785 22.5483 14.4084 23.3945 14.9638C24.2407 15.5192 24.9322 16.2819 25.4039 17.1799L25.4314 17.2351C25.4649 17.314 25.5032 17.3909 25.5459 17.4652C25.7373 17.7875 26.0043 18.0579 26.3237 18.2528C26.643 18.4477 27.005 18.5611 27.378 18.5832H27.6894C28.0642 18.5569 28.4264 18.4366 28.7429 18.2335L28.8529 18.1599L28.9445 18.0863C29.1232 17.9713 29.3176 17.8829 29.5216 17.8241C29.7258 17.7664 29.9369 17.737 30.1491 17.7366C30.4498 17.7342 30.7481 17.7913 31.0269 17.9047C31.3057 18.0181 31.5595 18.1855 31.7739 18.3974C31.9883 18.6093 32.159 18.8616 32.2763 19.1398C32.3936 19.4179 32.4552 19.7166 32.4576 20.0187Z" fill="#6164FF"/>
<path d="M35.7144 22.3698C36.9767 22.3698 38 21.3419 38 20.0739C38 18.8059 36.9767 17.778 35.7144 17.778C34.4521 17.778 33.4288 18.8059 33.4288 20.0739C33.4288 21.3419 34.4521 22.3698 35.7144 22.3698Z" fill="#6164FF"/>
<path d="M42.536 20.1118C42.5275 19.0284 42.7435 17.9551 43.1702 16.9598C43.9911 15.0264 45.5255 13.4867 47.4522 12.6629C48.4363 12.2351 49.4983 12.017 50.5708 12.0227C51.6327 12.0161 52.6861 12.2129 53.6744 12.6027C54.6186 12.9704 55.4734 13.5367 56.1813 14.2634C56.2863 14.3741 56.3499 14.5178 56.3615 14.6701C56.3631 14.7476 56.3478 14.8245 56.3167 14.8954C56.2856 14.9663 56.2394 15.0295 56.1813 15.0806L55.5096 15.7547C55.4573 15.8133 55.393 15.8599 55.3211 15.8911C55.2492 15.9223 55.1713 15.9375 55.093 15.9355C54.9421 15.929 54.7996 15.8642 54.6952 15.7547C54.1798 15.2217 53.553 14.8102 52.86 14.5496C52.1281 14.275 51.3522 14.1372 50.5708 14.1429C49.7788 14.1372 48.9942 14.2962 48.2665 14.6099C46.8481 15.2182 45.7187 16.3529 45.1142 17.777C44.8046 18.5142 44.6452 19.3062 44.6452 20.1062C44.6452 20.9062 44.8046 21.6981 45.1142 22.4354C45.7155 23.8634 46.8456 25.0015 48.2665 25.61C48.994 25.9249 49.7786 26.0852 50.5708 26.0808C51.35 26.0878 52.1234 25.9446 52.8488 25.659C53.5406 25.3844 54.169 24.9704 54.6952 24.4426C54.7419 24.3881 54.7993 24.3438 54.8639 24.3127C54.9285 24.2816 54.9988 24.2643 55.0705 24.2618C55.1512 24.2587 55.2316 24.2732 55.3062 24.3044C55.3807 24.3356 55.4475 24.3828 55.502 24.4426L56.1738 25.1431C56.234 25.1915 56.2817 25.2538 56.313 25.3245C56.3444 25.3952 56.3584 25.4725 56.354 25.5498C56.3525 25.6218 56.3356 25.6927 56.3045 25.7577C56.2734 25.8226 56.2289 25.8801 56.1738 25.9264C55.4578 26.6486 54.6003 27.214 53.6556 27.5871C52.6719 27.9794 51.6217 28.1763 50.5633 28.1671C49.4923 28.1724 48.4314 27.9597 47.4447 27.5419C46.4902 27.1389 45.6224 26.5545 44.889 25.8209C44.1569 25.0834 43.5711 24.2132 43.1627 23.2564C42.7396 22.2629 42.5262 21.1922 42.536 20.1118V20.1118Z" fill="white"/>
<path d="M58.6768 20.1118C58.6683 19.0284 58.8843 17.955 59.311 16.9598C59.7212 16.0006 60.3067 15.1269 61.0373 14.3839C61.7696 13.6423 62.6373 13.049 63.593 12.6366C64.5779 12.2117 65.6395 11.995 66.7116 12.0001C67.7947 11.9942 68.8675 12.2108 69.864 12.6366C70.8242 13.047 71.6959 13.6404 72.431 14.3839C73.1616 15.1269 73.7471 16.0006 74.1573 16.9598C74.5784 17.9569 74.7954 19.0288 74.7954 20.1118C74.7954 21.1948 74.5784 22.2667 74.1573 23.2639C73.7488 24.2207 73.163 25.091 72.431 25.8284C70.9171 27.3389 68.869 28.1867 66.7342 28.1867C64.5993 28.1867 62.5512 27.3389 61.0373 25.8284C60.3053 25.091 59.7195 24.2207 59.311 23.2639C58.8843 22.2686 58.6683 21.1953 58.6768 20.1118V20.1118ZM60.7859 20.1118C60.7826 20.9104 60.9423 21.7011 61.255 22.4354C61.554 23.1395 61.986 23.7789 62.5272 24.3183C63.0662 24.8596 63.703 25.2928 64.4036 25.595C65.1312 25.9095 65.9157 26.0698 66.7079 26.0657C67.511 26.0704 68.3067 25.9102 69.0459 25.595C70.475 24.9934 71.6121 23.8536 72.2133 22.4203C72.5214 21.6827 72.6801 20.8909 72.6801 20.0911C72.6801 19.2913 72.5214 18.4995 72.2133 17.7619C71.9094 17.0605 71.478 16.4219 70.9411 15.879C70.3873 15.3184 69.7277 14.8742 69.0008 14.5722C68.274 14.2702 67.4945 14.1166 66.7079 14.1203C65.9157 14.1162 65.1312 14.2765 64.4036 14.591C63.7008 14.8941 63.0635 15.3316 62.5272 15.879C61.9903 16.4219 61.5589 17.0605 61.255 17.7619C60.9377 18.504 60.7779 19.3043 60.7859 20.1118V20.1118Z" fill="white"/>
<path d="M78.8036 28.1146C78.7285 28.1168 78.6538 28.1028 78.5845 28.0736C78.5153 28.0443 78.453 28.0005 78.4021 27.9451C78.3056 27.8433 78.2507 27.7089 78.2482 27.5685V12.8816C78.2446 12.8045 78.2564 12.7275 78.2828 12.6551C78.3092 12.5827 78.3498 12.5163 78.4021 12.4598C78.4547 12.4073 78.5175 12.3663 78.5866 12.3391C78.6556 12.3119 78.7295 12.2991 78.8036 12.3016H83.307C84.3813 12.2926 85.4467 12.4988 86.4407 12.9079C87.379 13.2903 88.2315 13.8576 88.9476 14.5762C89.6637 15.2948 90.229 16.1502 90.6101 17.0918C91.0169 18.0894 91.2211 19.1585 91.2105 20.2363C91.2218 21.3106 91.0176 22.3761 90.6101 23.3695C90.2262 24.3019 89.661 25.1481 88.9476 25.8588C88.2275 26.5697 87.3759 27.1326 86.4407 27.5158C85.4467 27.9249 84.3813 28.1311 83.307 28.1221L78.8036 28.1146ZM83.307 25.9567C84.0924 25.9663 84.8719 25.8191 85.6001 25.5236C86.274 25.248 86.8883 24.8439 87.4089 24.3336C87.929 23.8162 88.3378 23.1971 88.6098 22.5147C88.9021 21.7886 89.0487 21.0118 89.0414 20.2288C89.0503 19.4371 88.9037 18.6514 88.6098 17.9165C88.3354 17.2385 87.9283 16.6226 87.4127 16.1052C86.897 15.5877 86.2832 15.1792 85.6075 14.9038C84.8793 14.6084 84.0999 14.4612 83.3145 14.4708H80.8452C80.7828 14.4702 80.7212 14.4842 80.6652 14.5116C80.6092 14.5391 80.5603 14.5792 80.5224 14.6289C80.4307 14.7395 80.3838 14.8807 80.3911 15.0243V25.3994C80.3866 25.4765 80.398 25.5537 80.4244 25.6263C80.4509 25.6988 80.4919 25.7651 80.5449 25.8211C80.5976 25.8722 80.6599 25.9123 80.7283 25.9388C80.7966 25.9653 80.8695 25.9778 80.9428 25.9755L83.307 25.9567Z" fill="white"/>
<path d="M96.3101 12.294C96.3866 12.2901 96.4629 12.3025 96.5342 12.3304C96.6055 12.3583 96.6701 12.4011 96.7236 12.4559C96.7772 12.5107 96.8186 12.5763 96.845 12.6484C96.8714 12.7205 96.8822 12.7973 96.8768 12.8739V27.5609C96.8763 27.6349 96.8613 27.7081 96.8325 27.7762C96.8037 27.8443 96.7617 27.9061 96.7091 27.9579C96.6564 28.0097 96.5941 28.0505 96.5256 28.0781C96.4571 28.1056 96.3839 28.1192 96.3101 28.1182H95.2969C95.2207 28.1203 95.1448 28.1063 95.0744 28.0771C95.0039 28.0479 94.9404 28.0042 94.8878 27.9488C94.788 27.8486 94.7302 27.7138 94.7264 27.5722V12.8852C94.7222 12.8086 94.734 12.7319 94.761 12.6601C94.7881 12.5883 94.8298 12.523 94.8835 12.4684C94.9373 12.4137 95.0018 12.371 95.073 12.3429C95.1442 12.3148 95.2205 12.302 95.2969 12.3053L96.3101 12.294Z" fill="white"/>
<path d="M99.9241 12.8816C99.9177 12.7238 99.9729 12.5698 100.078 12.4522C100.177 12.3518 100.312 12.2949 100.453 12.2941H110.462C110.603 12.2965 110.737 12.3531 110.837 12.4522C110.893 12.5087 110.936 12.5759 110.964 12.6498C110.993 12.7236 111.006 12.8025 111.002 12.8816V13.8645C111.004 13.9411 110.99 14.0171 110.961 14.0883C110.933 14.1594 110.891 14.2241 110.837 14.2787C110.79 14.3319 110.732 14.3747 110.668 14.4045C110.603 14.4343 110.533 14.4504 110.462 14.4519H107.013C106.9 14.4489 106.789 14.4878 106.702 14.5611C106.648 14.6079 106.605 14.6658 106.576 14.7309C106.547 14.7959 106.532 14.8664 106.533 14.9377V27.5572C106.53 27.6984 106.474 27.8332 106.375 27.9338C106.323 27.9891 106.26 28.0328 106.191 28.062C106.121 28.0912 106.046 28.1053 105.97 28.1033H104.945C104.875 28.1012 104.805 28.0851 104.741 28.0561C104.677 28.027 104.618 27.9854 104.57 27.9338C104.517 27.8861 104.475 27.8281 104.445 27.7634C104.415 27.6986 104.399 27.6285 104.397 27.5572V15.0055C104.396 14.8708 104.354 14.7396 104.277 14.6289C104.244 14.574 104.197 14.5285 104.141 14.4968C104.086 14.4652 104.023 14.4484 103.958 14.4482H100.468C100.397 14.4474 100.327 14.4315 100.262 14.4017C100.198 14.3718 100.14 14.3286 100.093 14.2749C99.9909 14.1616 99.9359 14.0134 99.9391 13.8607L99.9241 12.8816Z" fill="white"/>
<path d="M115.608 24.3372C115.535 24.3314 115.462 24.3415 115.393 24.3669C115.324 24.3922 115.262 24.4322 115.21 24.484C115.112 24.5952 115.033 24.7226 114.978 24.8606L113.983 27.734C113.964 27.8312 113.915 27.9199 113.843 27.9875C113.771 28.0551 113.679 28.0982 113.581 28.1106C113.417 28.1278 113.252 28.1366 113.086 28.137H112.204C112.135 28.1375 112.067 28.1155 112.01 28.0741C111.954 28.0327 111.913 27.9741 111.893 27.9072C111.828 27.7585 111.819 27.5915 111.866 27.4365L117.049 12.6554C117.097 12.5588 117.173 12.4788 117.267 12.4257C117.378 12.3524 117.509 12.3143 117.642 12.3165H118.922C119.045 12.3158 119.166 12.3497 119.271 12.4144C119.361 12.4628 119.434 12.5395 119.477 12.6328L124.634 27.4365C124.697 27.5816 124.706 27.7446 124.66 27.8959C124.638 27.9754 124.587 28.0439 124.518 28.0884C124.449 28.1329 124.366 28.1502 124.285 28.137H123.429C123.283 28.137 123.117 28.137 122.93 28.1106C122.832 28.098 122.741 28.0548 122.67 27.9871C122.599 27.9195 122.55 27.8309 122.532 27.734L121.583 25.0565C121.53 24.869 121.439 24.6946 121.316 24.5443C121.25 24.4762 121.171 24.4234 121.083 24.3895C120.994 24.3557 120.9 24.3417 120.806 24.3485L115.608 24.3372ZM118.565 16.5606C118.547 16.4918 118.504 16.4324 118.444 16.3946C118.384 16.3568 118.312 16.3435 118.243 16.3573C118.177 16.3655 118.114 16.3911 118.062 16.4315C118.009 16.4718 117.968 16.5255 117.942 16.587L116.163 21.7237C116.14 21.7779 116.136 21.8383 116.152 21.8951C116.168 21.9519 116.202 22.0017 116.25 22.0362C116.299 22.0848 116.358 22.1228 116.422 22.1481C116.487 22.1733 116.556 22.1852 116.625 22.1831H120.003C120.061 22.1854 120.119 22.1732 120.171 22.1476C120.224 22.1219 120.269 22.0837 120.303 22.0362C120.337 21.9927 120.36 21.9417 120.371 21.8873C120.381 21.8329 120.378 21.7768 120.363 21.7237L118.565 16.5606Z" fill="white"/>
<path d="M125.721 12.8816C125.717 12.8033 125.729 12.7251 125.756 12.6514C125.782 12.5777 125.823 12.51 125.875 12.4522C125.975 12.3518 126.11 12.2949 126.251 12.2941H136.259C136.4 12.2965 136.535 12.3531 136.635 12.4522C136.69 12.5087 136.733 12.5759 136.762 12.6498C136.79 12.7236 136.803 12.8025 136.8 12.8816V13.8645C136.801 13.9411 136.787 14.0171 136.759 14.0883C136.731 14.1594 136.688 14.2241 136.635 14.2787C136.587 14.3319 136.53 14.3747 136.465 14.4045C136.401 14.4343 136.331 14.4504 136.259 14.4519H132.811C132.697 14.4482 132.586 14.4872 132.499 14.5611C132.446 14.6079 132.403 14.6658 132.374 14.7309C132.344 14.7959 132.33 14.8664 132.33 14.9377V27.5572C132.328 27.6984 132.271 27.8332 132.173 27.9338C132.121 27.9891 132.058 28.0328 131.988 28.062C131.918 28.0912 131.843 28.1053 131.767 28.1033H130.743C130.672 28.1012 130.603 28.0851 130.538 28.0561C130.474 28.027 130.416 27.9854 130.367 27.9338C130.315 27.8861 130.272 27.8281 130.242 27.7634C130.213 27.6986 130.197 27.6285 130.195 27.5572V15.0055C130.193 14.8708 130.151 14.7396 130.075 14.6289C130.041 14.574 129.995 14.5285 129.939 14.4968C129.883 14.4652 129.82 14.4484 129.756 14.4482H126.266C126.194 14.4474 126.124 14.4315 126.06 14.4017C125.995 14.3718 125.937 14.3286 125.89 14.2749C125.787 14.1624 125.732 14.0137 125.736 13.8607L125.721 12.8816Z" fill="white"/>
<path d="M141.453 12.294C141.53 12.2907 141.606 12.3036 141.677 12.3316C141.749 12.3597 141.813 12.4025 141.867 12.4571C141.92 12.5117 141.962 12.577 141.989 12.6488C142.016 12.7206 142.028 12.7973 142.024 12.874V27.5609C142.02 27.7025 141.962 27.8373 141.862 27.9375C141.81 27.9929 141.746 28.0366 141.676 28.0658C141.605 28.095 141.53 28.109 141.453 28.107H140.44C140.364 28.1095 140.289 28.0956 140.219 28.0664C140.149 28.0372 140.086 27.9932 140.035 27.9375C139.934 27.8382 139.876 27.7029 139.874 27.5609V12.874C139.87 12.7962 139.882 12.7186 139.91 12.6459C139.937 12.5733 139.98 12.5073 140.035 12.4522C140.088 12.3995 140.152 12.3582 140.221 12.331C140.291 12.3038 140.365 12.2912 140.44 12.294H141.453Z" fill="white"/>
<path d="M145.454 20.1118C145.446 19.0284 145.662 17.955 146.088 16.9598C146.5 16.0013 147.085 15.1278 147.815 14.3839C148.547 13.6423 149.415 13.049 150.37 12.6366C151.355 12.2117 152.417 11.995 153.489 12.0001C154.572 11.9942 155.645 12.2108 156.641 12.6366C157.602 13.047 158.473 13.6404 159.208 14.3839C159.939 15.1269 160.524 16.0006 160.935 16.9598C161.356 17.9569 161.573 19.0288 161.573 20.1118C161.573 21.1948 161.356 22.2667 160.935 23.2639C160.526 24.2207 159.94 25.091 159.208 25.8284C157.694 27.3389 155.646 28.1867 153.511 28.1867C151.377 28.1867 149.329 27.3389 147.815 25.8284C147.084 25.09 146.498 24.22 146.088 23.2639C145.662 22.2686 145.446 21.1953 145.454 20.1118V20.1118ZM147.563 20.1118C147.56 20.9104 147.72 21.7011 148.032 22.4354C148.331 23.1395 148.763 23.7789 149.305 24.3183C149.844 24.8596 150.48 25.2928 151.181 25.595C151.909 25.9095 152.693 26.0698 153.485 26.0657C154.288 26.0704 155.084 25.9102 155.823 25.595C157.252 24.9934 158.389 23.8536 158.991 22.4203C159.299 21.6827 159.457 20.8909 159.457 20.0911C159.457 19.2913 159.299 18.4995 158.991 17.7619C158.687 17.0605 158.255 16.4219 157.718 15.879C157.165 15.3184 156.505 14.8742 155.778 14.5722C155.051 14.2702 154.272 14.1166 153.485 14.1203C152.693 14.1162 151.909 14.2765 151.181 14.591C150.478 14.8941 149.841 15.3316 149.305 15.879C148.768 16.4219 148.336 17.0605 148.032 17.7619C147.715 18.504 147.555 19.3043 147.563 20.1118V20.1118Z" fill="white"/>
<path d="M176.209 12.2939C176.283 12.2914 176.357 12.3042 176.426 12.3314C176.495 12.3586 176.558 12.3996 176.61 12.4521C176.664 12.5079 176.705 12.5741 176.732 12.6466C176.76 12.7192 176.772 12.7965 176.768 12.8739V27.5608C176.765 27.702 176.709 27.8368 176.61 27.9374C176.559 27.9928 176.497 28.0366 176.428 28.0659C176.358 28.0951 176.284 28.1091 176.209 28.1069H175.604C175.488 28.1157 175.372 28.096 175.265 28.0494C175.159 28.0028 175.065 27.9307 174.993 27.8395L167.844 17.2762C167.8 17.2394 167.751 17.2113 167.697 17.1933C167.638 17.1711 167.573 17.1711 167.513 17.1933C167.443 17.2222 167.386 17.2776 167.356 17.3477C167.299 17.4728 167.273 17.6097 167.281 17.7469V27.557C167.278 27.6982 167.222 27.8331 167.123 27.9336C167.072 27.989 167.01 28.0329 166.941 28.0621C166.871 28.0913 166.797 28.1053 166.721 28.1031H165.701C165.626 28.1053 165.551 28.0913 165.482 28.0621C165.412 28.0329 165.35 27.989 165.299 27.9336C165.2 27.8331 165.144 27.6982 165.142 27.557V12.8701C165.138 12.7927 165.15 12.7154 165.177 12.6429C165.204 12.5704 165.246 12.5041 165.299 12.4483C165.352 12.3959 165.415 12.3548 165.484 12.3276C165.553 12.3004 165.627 12.2877 165.701 12.2902H166.425C166.534 12.2926 166.641 12.3229 166.736 12.3782C166.83 12.4336 166.909 12.5121 166.965 12.6065L174.096 23.1284C174.128 23.1867 174.176 23.2346 174.235 23.2666C174.293 23.2986 174.36 23.3133 174.426 23.3091C174.565 23.3091 174.636 23.1133 174.636 22.7405V12.8739C174.632 12.7965 174.644 12.7192 174.672 12.6466C174.699 12.5741 174.74 12.5079 174.794 12.4521C174.846 12.3996 174.909 12.3586 174.978 12.3314C175.047 12.3042 175.121 12.2914 175.195 12.2939H176.209Z" fill="white"/>
</svg>
